{
	"patcher" : 	{
		"fileversion" : 1,
		"appversion" : 		{
			"major" : 8,
			"minor" : 6,
			"revision" : 0,
			"architecture" : "x64",
			"modernui" : 1
		}
,
		"classnamespace" : "box",
		"rect" : [ 1987.0, 222.0, 640.0, 480.0 ],
		"bglocked" : 0,
		"openinpresentation" : 0,
		"default_fontsize" : 12.0,
		"default_fontface" : 0,
		"default_fontname" : "Arial",
		"gridonopen" : 1,
		"gridsize" : [ 15.0, 15.0 ],
		"gridsnaponopen" : 1,
		"objectsnaponopen" : 1,
		"statusbarvisible" : 2,
		"toolbarvisible" : 1,
		"lefttoolbarpinned" : 0,
		"toptoolbarpinned" : 0,
		"righttoolbarpinned" : 0,
		"bottomtoolbarpinned" : 0,
		"toolbars_unpinned_last_save" : 0,
		"tallnewobj" : 0,
		"boxanimatetime" : 200,
		"enablehscroll" : 1,
		"enablevscroll" : 1,
		"devicewidth" : 0.0,
		"description" : "",
		"digest" : "",
		"tags" : "",
		"style" : "",
		"subpatcher_template" : "",
		"assistshowspatchername" : 0,
		"boxes" : [ 			{
				"box" : 				{
					"attr" : "beat",
					"id" : "obj-27",
					"maxclass" : "attrui",
					"numinlets" : 1,
					"numoutlets" : 1,
					"outlettype" : [ "" ],
					"parameter_enable" : 0,
					"patching_rect" : [ 218.0, 210.0, 148.0, 22.0 ]
				}

			}
, 			{
				"box" : 				{
					"attr" : "out-gain",
					"id" : "obj-16",
					"maxclass" : "attrui",
					"numinlets" : 1,
					"numoutlets" : 1,
					"outlettype" : [ "" ],
					"parameter_enable" : 0,
					"patching_rect" : [ 54.0, 210.0, 150.0, 22.0 ]
				}

			}
, 			{
				"box" : 				{
					"id" : "obj-17",
					"maxclass" : "newobj",
					"numinlets" : 6,
					"numoutlets" : 1,
					"outlettype" : [ "" ],
					"patching_rect" : [ 54.0, 171.0, 93.0, 22.0 ],
					"text" : "scale 0 127 0 1."
				}

			}
, 			{
				"box" : 				{
					"id" : "obj-18",
					"maxclass" : "slider",
					"numinlets" : 1,
					"numoutlets" : 1,
					"outlettype" : [ "" ],
					"parameter_enable" : 0,
					"patching_rect" : [ 54.0, 14.0, 20.0, 140.0 ]
				}

			}
, 			{
				"box" : 				{
					"id" : "obj-7",
					"maxclass" : "number",
					"numinlets" : 1,
					"numoutlets" : 2,
					"outlettype" : [ "", "bang" ],
					"parameter_enable" : 0,
					"patching_rect" : [ 594.0, 78.0, 50.0, 22.0 ]
				}

			}
, 			{
				"box" : 				{
					"id" : "obj-8",
					"maxclass" : "number",
					"numinlets" : 1,
					"numoutlets" : 2,
					"outlettype" : [ "", "bang" ],
					"parameter_enable" : 0,
					"patching_rect" : [ 396.0, 73.0, 50.0, 22.0 ]
				}

			}
, 			{
				"box" : 				{
					"fontsize" : 13.0,
					"id" : "obj-3",
					"maxclass" : "newobj",
					"numinlets" : 2,
					"numoutlets" : 1,
					"outlettype" : [ "" ],
					"patching_rect" : [ 416.0, 162.0, 205.0, 23.0 ],
					"text" : "pack"
				}

			}
, 			{
				"box" : 				{
					"id" : "obj-78",
					"maxclass" : "kslider",
					"numinlets" : 2,
					"numoutlets" : 2,
					"outlettype" : [ "int", "int" ],
					"parameter_enable" : 0,
					"patching_rect" : [ 396.0, 23.0, 224.0, 38.0 ]
				}

			}
, 			{
				"box" : 				{
					"fontname" : "Arial",
					"fontsize" : 13.0,
					"id" : "obj-4",
					"maxclass" : "newobj",
					"numinlets" : 3,
					"numoutlets" : 2,
					"outlettype" : [ "float", "float" ],
					"patching_rect" : [ 416.0, 125.0, 116.0, 23.0 ],
					"text" : "makenote 60 2000"
				}

			}
, 			{
				"box" : 				{
					"id" : "obj-5",
					"maxclass" : "newobj",
					"numinlets" : 7,
					"numoutlets" : 2,
					"outlettype" : [ "int", "" ],
					"patching_rect" : [ 416.0, 202.0, 129.0, 22.0 ],
					"text" : "midiformat"
				}

			}
, 			{
				"box" : 				{
					"autosave" : 1,
					"id" : "obj-2",
					"inletInfo" : 					{
						"IOInfo" : [ 							{
								"type" : "midi",
								"index" : -1,
								"tag" : "",
								"comment" : ""
							}
 ]
					}
,
					"maxclass" : "newobj",
					"numinlets" : 2,
					"numoutlets" : 1,
					"outletInfo" : 					{
						"IOInfo" : [  ]
					}
,
					"outlettype" : [ "list" ],
					"patcher" : 					{
						"fileversion" : 1,
						"appversion" : 						{
							"major" : 8,
							"minor" : 6,
							"revision" : 0,
							"architecture" : "x64",
							"modernui" : 1
						}
,
						"classnamespace" : "rnbo",
						"rect" : [ -31958.0, -31915.0, 665.0, 494.0 ],
						"bglocked" : 0,
						"openinpresentation" : 0,
						"default_fontsize" : 12.0,
						"default_fontface" : 0,
						"default_fontname" : "Lato",
						"gridonopen" : 1,
						"gridsize" : [ 15.0, 15.0 ],
						"gridsnaponopen" : 1,
						"objectsnaponopen" : 1,
						"statusbarvisible" : 2,
						"toolbarvisible" : 1,
						"lefttoolbarpinned" : 0,
						"toptoolbarpinned" : 0,
						"righttoolbarpinned" : 0,
						"bottomtoolbarpinned" : 0,
						"toolbars_unpinned_last_save" : 0,
						"tallnewobj" : 0,
						"boxanimatetime" : 200,
						"enablehscroll" : 1,
						"enablevscroll" : 1,
						"devicewidth" : 0.0,
						"description" : "",
						"digest" : "",
						"tags" : "",
						"style" : "",
						"subpatcher_template" : "",
						"assistshowspatchername" : 0,
						"title" : "synth1",
						"boxes" : [ 							{
								"box" : 								{
									"id" : "obj-2",
									"maxclass" : "newobj",
									"numinlets" : 1,
									"numoutlets" : 0,
									"patching_rect" : [ 86.0, 87.0, 34.0, 23.0 ],
									"rnbo_classname" : "print",
									"rnbo_extra_attributes" : 									{
										"prefix" : ""
									}
,
									"rnbo_serial" : 1,
									"rnbo_uniqueid" : "print_obj-2",
									"text" : "print"
								}

							}
, 							{
								"box" : 								{
									"id" : "obj-1",
									"maxclass" : "newobj",
									"numinlets" : 1,
									"numoutlets" : 1,
									"outlettype" : [ "" ],
									"patching_rect" : [ 86.0, 51.0, 41.0, 23.0 ],
									"rnbo_classname" : "midiin",
									"rnbo_serial" : 1,
									"rnbo_uniqueid" : "midiin_obj-1",
									"text" : "midiin"
								}

							}
 ],
						"lines" : [ 							{
								"patchline" : 								{
									"destination" : [ "obj-2", 0 ],
									"source" : [ "obj-1", 0 ]
								}

							}
 ],
						"default_bgcolor" : [ 0.031372549019608, 0.125490196078431, 0.211764705882353, 1.0 ],
						"color" : [ 0.929412, 0.929412, 0.352941, 1.0 ],
						"elementcolor" : [ 0.357540726661682, 0.515565991401672, 0.861786782741547, 1.0 ],
						"accentcolor" : [ 0.343034118413925, 0.506230533123016, 0.86220508813858, 1.0 ],
						"stripecolor" : [ 0.258338063955307, 0.352425158023834, 0.511919498443604, 1.0 ],
						"bgfillcolor_type" : "color",
						"bgfillcolor_color" : [ 0.031372549019608, 0.125490196078431, 0.211764705882353, 1.0 ],
						"bgfillcolor_color1" : [ 0.031372549019608, 0.125490196078431, 0.211764705882353, 1.0 ],
						"bgfillcolor_color2" : [ 0.263682, 0.004541, 0.038797, 1.0 ],
						"bgfillcolor_angle" : 270.0,
						"bgfillcolor_proportion" : 0.39,
						"bgfillcolor_autogradient" : 0.0
					}
,
					"patching_rect" : [ 151.0, 325.0, 112.0, 22.0 ],
					"rnboattrcache" : 					{

					}
,
					"rnboversion" : "1.2.4",
					"saved_attribute_attributes" : 					{
						"valueof" : 						{
							"parameter_invisible" : 1,
							"parameter_longname" : "rnbo~",
							"parameter_shortname" : "rnbo~",
							"parameter_type" : 3
						}

					}
,
					"saved_object_attributes" : 					{
						"optimization" : "O1",
						"parameter_enable" : 1,
						"uuid" : "5e630fb7-e14c-11ee-8fb7-18c04d2c1028"
					}
,
					"snapshot" : 					{
						"filetype" : "C74Snapshot",
						"version" : 2,
						"minorversion" : 0,
						"name" : "snapshotlist",
						"origin" : "rnbo~",
						"type" : "list",
						"subtype" : "Undefined",
						"embed" : 1,
						"snapshot" : 						{
							"__presetid" : "synth1"
						}
,
						"snapshotlist" : 						{
							"current_snapshot" : 0,
							"entries" : [ 								{
									"filetype" : "C74Snapshot",
									"version" : 2,
									"minorversion" : 0,
									"name" : "untitled",
									"origin" : "synth1",
									"type" : "rnbo",
									"subtype" : "",
									"embed" : 0,
									"snapshot" : 									{
										"__presetid" : "synth1"
									}
,
									"fileref" : 									{
										"name" : "untitled",
										"filename" : "untitled_20240217.maxsnap",
										"filepath" : "~/Documents/Max 8/Snapshots",
										"filepos" : -1,
										"snapshotfileid" : "1147d6e0112e3aec3d2322739c777e70"
									}

								}
 ]
						}

					}
,
					"text" : "rnbo~ @title synth1",
					"varname" : "rnbo~"
				}

			}
, 			{
				"box" : 				{
					"id" : "obj-1",
					"maxclass" : "ezdac~",
					"numinlets" : 2,
					"numoutlets" : 0,
					"patching_rect" : [ 151.0, 373.0, 45.0, 45.0 ]
				}

			}
 ],
		"lines" : [ 			{
				"patchline" : 				{
					"destination" : [ "obj-2", 0 ],
					"source" : [ "obj-16", 0 ]
				}

			}
, 			{
				"patchline" : 				{
					"destination" : [ "obj-16", 0 ],
					"source" : [ "obj-17", 0 ]
				}

			}
, 			{
				"patchline" : 				{
					"destination" : [ "obj-17", 0 ],
					"source" : [ "obj-18", 0 ]
				}

			}
, 			{
				"patchline" : 				{
					"destination" : [ "obj-1", 1 ],
					"order" : 0,
					"source" : [ "obj-2", 0 ]
				}

			}
, 			{
				"patchline" : 				{
					"destination" : [ "obj-1", 0 ],
					"order" : 1,
					"source" : [ "obj-2", 0 ]
				}

			}
, 			{
				"patchline" : 				{
					"destination" : [ "obj-2", 0 ],
					"source" : [ "obj-27", 0 ]
				}

			}
, 			{
				"patchline" : 				{
					"destination" : [ "obj-5", 0 ],
					"source" : [ "obj-3", 0 ]
				}

			}
, 			{
				"patchline" : 				{
					"destination" : [ "obj-3", 1 ],
					"source" : [ "obj-4", 1 ]
				}

			}
, 			{
				"patchline" : 				{
					"destination" : [ "obj-3", 0 ],
					"source" : [ "obj-4", 0 ]
				}

			}
, 			{
				"patchline" : 				{
					"destination" : [ "obj-2", 1 ],
					"source" : [ "obj-5", 0 ]
				}

			}
, 			{
				"patchline" : 				{
					"destination" : [ "obj-4", 1 ],
					"source" : [ "obj-7", 0 ]
				}

			}
, 			{
				"patchline" : 				{
					"destination" : [ "obj-7", 0 ],
					"source" : [ "obj-78", 1 ]
				}

			}
, 			{
				"patchline" : 				{
					"destination" : [ "obj-8", 0 ],
					"source" : [ "obj-78", 0 ]
				}

			}
, 			{
				"patchline" : 				{
					"destination" : [ "obj-4", 0 ],
					"source" : [ "obj-8", 0 ]
				}

			}
 ],
		"parameters" : 		{
			"obj-2" : [ "rnbo~", "rnbo~", 0 ],
			"parameterbanks" : 			{
				"0" : 				{
					"index" : 0,
					"name" : "",
					"parameters" : [ "-", "-", "-", "-", "-", "-", "-", "-" ]
				}

			}
,
			"inherited_shortname" : 1
		}
,
		"dependency_cache" : [ 			{
				"name" : "untitled_20240217.maxsnap",
				"bootpath" : "~/Documents/Max 8/Snapshots",
				"patcherrelativepath" : "../../Max 8/Snapshots",
				"type" : "mx@s",
				"implicit" : 1
			}
 ],
		"autosave" : 0
	}

}
